<svg viewBox="0 0 1869 137" version="1.1" xmlns="http://www.w3.org/2000/svg">
    <g fill="#FFFFFF">
        <path d="M56.7,59.64 C64.82,59.64 72.03,61.18 78.33,64.26 C84.63,67.34 89.495,71.575 92.925,76.965 C96.355,82.355 98.07,88.41 98.07,95.13 C98.07,102.55 96.25,109.27 92.61,115.29 C88.97,121.31 83.965,126.035 77.595,129.465 C71.225,132.895 64.12,134.61 56.28,134.61 C51.66,134.61 46.62,134.4 41.16,133.98 C39.2,133.84 36.89,133.7 34.23,133.56 C31.57,133.42 28.63,133.35 25.41,133.35 L11.13,133.56 C8.61,133.7 5.04,133.77 0.42,133.77 C0.14,133.77 0,133.35 0,132.51 C0,131.67 0.14,131.25 0.42,131.25 C5.74,131.25 9.66,130.865 12.18,130.095 C14.7,129.325 16.45,127.96 17.43,126 C18.41,124.04 18.9,120.96 18.9,116.76 L18.9,19.53 C18.9,15.33 18.445,12.25 17.535,10.29 C16.625,8.33 14.91,6.965 12.39,6.195 C9.87,5.425 6.02,5.04 0.84,5.04 C0.42,5.04 0.21,4.62 0.21,3.78 C0.21,2.94 0.42,2.52 0.84,2.52 L11.13,2.73 C17.01,3.01 21.77,3.15 25.41,3.15 C27.93,3.15 30.275,3.08 32.445,2.94 C34.615,2.8 36.47,2.66 38.01,2.52 C42.49,2.1 46.55,1.89 50.19,1.89 C61.95,1.89 70.77,4.445 76.65,9.555 C82.53,14.665 85.47,21.35 85.47,29.61 C85.47,37.45 82.635,44.205 76.965,49.875 C71.295,55.545 63.77,59.57 54.39,61.95 L56.7,59.64 Z M45.57,5.04 C41.79,5.04 39.06,5.32 37.38,5.88 C35.7,6.44 34.44,7.77 33.6,9.87 C32.76,11.97 32.34,15.33 32.34,19.95 L32.34,61.11 L25.62,59.43 C31.64,59.85 37.03,60.06 41.79,60.06 C52.01,60.06 59.57,57.435 64.47,52.185 C69.37,46.935 71.82,39.97 71.82,31.29 C71.82,23.45 69.685,17.115 65.415,12.285 C61.145,7.455 54.53,5.04 45.57,5.04 Z M53.13,130.83 C63.35,130.83 70.945,128.205 75.915,122.955 C80.885,117.705 83.37,110.18 83.37,100.38 C83.37,89.74 80.255,81.13 74.025,74.55 C67.795,67.97 59.22,64.61 48.3,64.47 C40.32,64.19 32.97,64.54 26.25,65.52 L32.34,63.21 L32.34,116.76 C32.34,120.4 32.865,123.2 33.915,125.16 C34.965,127.12 36.995,128.555 40.005,129.465 C43.015,130.375 47.39,130.83 53.13,130.83 Z" ></path>
        <path d="M262.71,133.77 C259.21,133.77 252.525,127.785 242.655,115.815 C232.785,103.845 220.92,87.36 207.06,66.36 L218.82,62.79 C231,80.29 241.185,93.905 249.375,103.635 C257.565,113.365 264.81,120.4 271.11,124.74 C277.41,129.08 283.57,131.25 289.59,131.25 C290.01,131.25 290.22,131.67 290.22,132.51 C290.22,133.35 290.01,133.77 289.59,133.77 L262.71,133.77 Z M209.79,1.89 C220.85,1.89 229.39,4.41 235.41,9.45 C241.43,14.49 244.44,21.21 244.44,29.61 C244.44,37.03 242.27,43.785 237.93,49.875 C233.59,55.965 227.745,60.795 220.395,64.365 C213.045,67.935 205.17,69.72 196.77,69.72 C195.93,69.72 192.78,69.51 187.32,69.09 L187.32,116.76 C187.32,121.1 187.74,124.25 188.58,126.21 C189.42,128.17 191.065,129.5 193.515,130.2 C195.965,130.9 199.85,131.25 205.17,131.25 C205.59,131.25 205.8,131.67 205.8,132.51 C205.8,133.35 205.59,133.77 205.17,133.77 C200.83,133.77 197.4,133.7 194.88,133.56 L180.39,133.35 L166.11,133.56 C163.59,133.7 160.02,133.77 155.4,133.77 C155.12,133.77 154.98,133.35 154.98,132.51 C154.98,131.67 155.12,131.25 155.4,131.25 C160.72,131.25 164.64,130.865 167.16,130.095 C169.68,129.325 171.43,127.96 172.41,126 C173.39,124.04 173.88,120.96 173.88,116.76 L173.88,19.53 C173.88,15.33 173.425,12.25 172.515,10.29 C171.605,8.33 169.925,6.965 167.475,6.195 C165.025,5.425 161.14,5.04 155.82,5.04 C155.4,5.04 155.19,4.62 155.19,3.78 C155.19,2.94 155.4,2.52 155.82,2.52 L166.11,2.73 C171.99,3.01 176.75,3.15 180.39,3.15 C183.47,3.15 186.34,3.08 189,2.94 C191.66,2.8 193.9,2.66 195.72,2.52 C201.04,2.1 205.73,1.89 209.79,1.89 Z M230.16,35.7 C230.16,24.78 227.745,16.94 222.915,12.18 C218.085,7.42 211.05,5.04 201.81,5.04 C196.35,5.04 192.57,6.02 190.47,7.98 C188.37,9.94 187.32,13.93 187.32,19.95 L187.32,64.05 C190.68,64.61 194.81,64.89 199.71,64.89 C210.63,64.89 218.435,62.51 223.125,57.75 C227.815,52.99 230.16,45.64 230.16,35.7 Z" ></path>
        <path d="M367.29,116.76 C367.29,121.1 367.71,124.25 368.55,126.21 C369.39,128.17 371.035,129.5 373.485,130.2 C375.935,130.9 379.82,131.25 385.14,131.25 C385.56,131.25 385.77,131.67 385.77,132.51 C385.77,133.35 385.56,133.77 385.14,133.77 C380.94,133.77 377.58,133.7 375.06,133.56 L360.15,133.35 L345.66,133.56 C343.14,133.7 339.71,133.77 335.37,133.77 C334.95,133.77 334.74,133.35 334.74,132.51 C334.74,131.67 334.95,131.25 335.37,131.25 C340.69,131.25 344.575,130.9 347.025,130.2 C349.475,129.5 351.155,128.135 352.065,126.105 C352.975,124.075 353.43,120.96 353.43,116.76 L353.43,19.53 C353.43,15.33 352.975,12.25 352.065,10.29 C351.155,8.33 349.475,6.965 347.025,6.195 C344.575,5.425 340.69,5.04 335.37,5.04 C334.95,5.04 334.74,4.62 334.74,3.78 C334.74,2.94 334.95,2.52 335.37,2.52 L345.66,2.73 C351.54,3.01 356.37,3.15 360.15,3.15 C364.35,3.15 369.39,3.01 375.27,2.73 L385.14,2.52 C385.56,2.52 385.77,2.94 385.77,3.78 C385.77,4.62 385.56,5.04 385.14,5.04 C379.96,5.04 376.11,5.46 373.59,6.3 C371.07,7.14 369.39,8.575 368.55,10.605 C367.71,12.635 367.29,15.75 367.29,19.95 L367.29,116.76 Z" ></path>
        <path d="M475.86,71.82 L531.51,71.82 L532.98,76.02 L473.76,76.02 L475.86,71.82 Z M579.81,131.25 C580.37,131.25 580.65,131.67 580.65,132.51 C580.65,133.35 580.37,133.77 579.81,133.77 C577.15,133.77 573.02,133.63 567.42,133.35 C561.82,133.07 557.76,132.93 555.24,132.93 C552.16,132.93 548.24,133.07 543.48,133.35 C539,133.63 535.57,133.77 533.19,133.77 C532.63,133.77 532.35,133.35 532.35,132.51 C532.35,131.67 532.63,131.25 533.19,131.25 C538.51,131.25 542.325,130.76 544.635,129.78 C546.945,128.8 548.1,127.05 548.1,124.53 C548.1,122.43 547.26,119.49 545.58,115.71 L498.96,17.22 L504.21,10.71 L463.47,107.1 C461.51,111.86 460.53,115.78 460.53,118.86 C460.53,127.12 467.39,131.25 481.11,131.25 C481.81,131.25 482.16,131.67 482.16,132.51 C482.16,133.35 481.81,133.77 481.11,133.77 C478.59,133.77 474.95,133.63 470.19,133.35 C464.87,133.07 460.25,132.93 456.33,132.93 C452.69,132.93 448.49,133.07 443.73,133.35 C439.53,133.63 436.03,133.77 433.23,133.77 C432.53,133.77 432.18,133.35 432.18,132.51 C432.18,131.67 432.53,131.25 433.23,131.25 C437.15,131.25 440.475,130.515 443.205,129.045 C445.935,127.575 448.525,124.985 450.975,121.275 C453.425,117.565 456.12,112.21 459.06,105.21 L503.37,0.63 C503.65,0.21 504.14,0 504.84,0 C505.54,0 505.96,0.21 506.1,0.63 L555.66,105 C560.42,115.36 564.48,122.325 567.84,125.895 C571.2,129.465 575.19,131.25 579.81,131.25 Z" ></path>
        <path d="M643.44,7.35 L648.27,7.77 L648.27,110.88 C648.27,118.16 649.565,123.375 652.155,126.525 C654.745,129.675 658.91,131.25 664.65,131.25 C665.07,131.25 665.28,131.67 665.28,132.51 C665.28,133.35 665.07,133.77 664.65,133.77 C661.15,133.77 658.49,133.7 656.67,133.56 L646.17,133.35 L635.46,133.56 C633.5,133.7 630.63,133.77 626.85,133.77 C626.57,133.77 626.43,133.35 626.43,132.51 C626.43,131.67 626.57,131.25 626.85,131.25 C632.87,131.25 637.14,129.675 639.66,126.525 C642.18,123.375 643.44,118.16 643.44,110.88 L643.44,7.35 Z M749.28,136.29 C749.28,136.57 748.93,136.78 748.23,136.92 C747.53,137.06 747.04,136.99 746.76,136.71 L650.16,19.74 C645.68,14.28 641.585,10.465 637.875,8.295 C634.165,6.125 630.49,5.04 626.85,5.04 C626.43,5.04 626.22,4.62 626.22,3.78 C626.22,2.94 626.43,2.52 626.85,2.52 L634.62,2.73 C636.3,2.87 638.61,2.94 641.55,2.94 C644.63,2.94 647.15,2.87 649.11,2.73 C651.07,2.59 652.61,2.52 653.73,2.52 C654.71,2.52 655.515,2.765 656.145,3.255 C656.775,3.745 657.51,4.76 658.35,6.3 C660.03,8.82 661.78,11.2 663.6,13.44 L747.6,116.55 L749.28,136.29 Z M749.28,136.29 L744.45,129.78 L744.45,25.62 C744.45,18.34 743.225,13.09 740.775,9.87 C738.325,6.65 734.23,5.04 728.49,5.04 C728.21,5.04 728.07,4.62 728.07,3.78 C728.07,2.94 728.21,2.52 728.49,2.52 L736.68,2.73 C740.88,3.01 744.31,3.15 746.97,3.15 C749.49,3.15 752.99,3.01 757.47,2.73 L766.08,2.52 C766.5,2.52 766.71,2.94 766.71,3.78 C766.71,4.62 766.5,5.04 766.08,5.04 C760.2,5.04 755.93,6.65 753.27,9.87 C750.61,13.09 749.28,18.34 749.28,25.62 L749.28,136.29 Z" ></path>
        <path d="M981.96,0.21 C990.78,0.21 998.2,0.84 1004.22,2.1 C1010.24,3.36 1016.26,5.53 1022.28,8.61 C1023.26,9.17 1023.82,9.66 1023.96,10.08 C1024.1,10.5 1024.31,11.55 1024.59,13.23 L1027.11,38.22 C1027.11,38.64 1026.72,38.885 1025.95,38.955 C1025.18,39.025 1024.73,38.85 1024.59,38.43 C1018.15,15.05 1003.73,3.36 981.33,3.36 C969.57,3.36 959.175,5.95 950.145,11.13 C941.115,16.31 934.15,23.695 929.25,33.285 C924.35,42.875 921.9,54.04 921.9,66.78 C921.9,78.96 924.63,90.125 930.09,100.275 C935.55,110.425 942.865,118.44 952.035,124.32 C961.205,130.2 971.18,133.14 981.96,133.14 C993.44,133.14 1002.75,130.34 1009.89,124.74 C1017.03,119.14 1022.49,110.6 1026.27,99.12 C1026.27,98.84 1026.62,98.7 1027.32,98.7 C1028.3,98.7 1028.79,98.91 1028.79,99.33 L1026.69,122.43 C1026.55,124.11 1026.34,125.16 1026.06,125.58 C1025.78,126 1025.22,126.49 1024.38,127.05 C1017.1,130.55 1010.27,133 1003.9,134.4 C997.535,135.8 990.22,136.5 981.96,136.5 C967.26,136.5 954.135,133.595 942.585,127.785 C931.035,121.975 922.04,113.82 915.6,103.32 C909.16,92.82 905.94,80.78 905.94,67.2 C905.94,54.04 909.23,42.385 915.81,32.235 C922.39,22.085 931.455,14.21 943.005,8.61 C954.555,3.01 967.54,0.21 981.96,0.21 Z" ></path>
        <path d="M1116.36,115.92 C1116.36,119.98 1116.78,122.92 1117.62,124.74 C1118.46,126.56 1120,127.785 1122.24,128.415 C1124.48,129.045 1128.12,129.36 1133.16,129.36 L1156.05,129.36 C1164.03,129.36 1170.4,126.91 1175.16,122.01 C1179.92,117.11 1183.07,110.32 1184.61,101.64 C1184.61,101.22 1185,101.045 1185.77,101.115 C1186.54,101.185 1186.92,101.43 1186.92,101.85 C1185.66,113.47 1185.03,123.06 1185.03,130.62 C1185.03,131.74 1184.82,132.545 1184.4,133.035 C1183.98,133.525 1183.14,133.77 1181.88,133.77 L1084.86,133.77 C1084.58,133.77 1084.44,133.35 1084.44,132.51 C1084.44,131.67 1084.58,131.25 1084.86,131.25 C1090.18,131.25 1094.07,130.9 1096.52,130.2 C1098.96,129.5 1100.61,128.135 1101.45,126.105 C1102.29,124.075 1102.71,120.96 1102.71,116.76 L1102.71,19.53 C1102.71,15.33 1102.29,12.25 1101.45,10.29 C1100.61,8.33 1098.96,6.965 1096.52,6.195 C1094.07,5.425 1090.18,5.04 1084.86,5.04 C1084.58,5.04 1084.44,4.62 1084.44,3.78 C1084.44,2.94 1084.58,2.52 1084.86,2.52 L1095.15,2.73 C1101.03,3.01 1105.79,3.15 1109.43,3.15 C1113.35,3.15 1118.25,3.01 1124.13,2.73 L1134.21,2.52 C1134.63,2.52 1134.84,2.94 1134.84,3.78 C1134.84,4.62 1134.63,5.04 1134.21,5.04 C1129.03,5.04 1125.18,5.425 1122.66,6.195 C1120.14,6.965 1118.46,8.365 1117.62,10.395 C1116.78,12.425 1116.36,15.54 1116.36,19.74 L1116.36,115.92 Z" ></path>
        <path d="M1270.08,71.82 L1325.73,71.82 L1327.2,76.02 L1267.98,76.02 L1270.08,71.82 Z M1374.03,131.25 C1374.59,131.25 1374.87,131.67 1374.87,132.51 C1374.87,133.35 1374.59,133.77 1374.03,133.77 C1371.37,133.77 1367.24,133.63 1361.64,133.35 C1356.04,133.07 1351.98,132.93 1349.46,132.93 C1346.38,132.93 1342.46,133.07 1337.7,133.35 C1333.22,133.63 1329.79,133.77 1327.41,133.77 C1326.85,133.77 1326.57,133.35 1326.57,132.51 C1326.57,131.67 1326.85,131.25 1327.41,131.25 C1332.73,131.25 1336.55,130.76 1338.86,129.78 C1341.16,128.8 1342.32,127.05 1342.32,124.53 C1342.32,122.43 1341.48,119.49 1339.8,115.71 L1293.18,17.22 L1298.43,10.71 L1257.69,107.1 C1255.73,111.86 1254.75,115.78 1254.75,118.86 C1254.75,127.12 1261.61,131.25 1275.33,131.25 C1276.03,131.25 1276.38,131.67 1276.38,132.51 C1276.38,133.35 1276.03,133.77 1275.33,133.77 C1272.81,133.77 1269.17,133.63 1264.41,133.35 C1259.09,133.07 1254.47,132.93 1250.55,132.93 C1246.91,132.93 1242.71,133.07 1237.95,133.35 C1233.75,133.63 1230.25,133.77 1227.45,133.77 C1226.75,133.77 1226.4,133.35 1226.4,132.51 C1226.4,131.67 1226.75,131.25 1227.45,131.25 C1231.37,131.25 1234.69,130.515 1237.42,129.045 C1240.15,127.575 1242.75,124.985 1245.19,121.275 C1247.64,117.565 1250.34,112.21 1253.28,105.21 L1297.59,0.63 C1297.87,0.21 1298.36,0 1299.06,0 C1299.76,0 1300.18,0.21 1300.32,0.63 L1349.88,105 C1354.64,115.36 1358.7,122.325 1362.06,125.895 C1365.42,129.465 1369.41,131.25 1374.03,131.25 Z" ></path>
        <path d="M1528.8,133.77 C1525.3,133.77 1518.62,127.785 1508.75,115.815 C1498.88,103.845 1487.01,87.36 1473.15,66.36 L1484.91,62.79 C1497.09,80.29 1507.28,93.905 1515.46,103.635 C1523.65,113.365 1530.9,120.4 1537.2,124.74 C1543.5,129.08 1549.66,131.25 1555.68,131.25 C1556.1,131.25 1556.31,131.67 1556.31,132.51 C1556.31,133.35 1556.1,133.77 1555.68,133.77 L1528.8,133.77 Z M1475.88,1.89 C1486.94,1.89 1495.48,4.41 1501.5,9.45 C1507.52,14.49 1510.53,21.21 1510.53,29.61 C1510.53,37.03 1508.36,43.785 1504.02,49.875 C1499.68,55.965 1493.84,60.795 1486.49,64.365 C1479.13,67.935 1471.26,69.72 1462.86,69.72 C1462.02,69.72 1458.87,69.51 1453.41,69.09 L1453.41,116.76 C1453.41,121.1 1453.83,124.25 1454.67,126.21 C1455.51,128.17 1457.15,129.5 1459.61,130.2 C1462.06,130.9 1465.94,131.25 1471.26,131.25 C1471.68,131.25 1471.89,131.67 1471.89,132.51 C1471.89,133.35 1471.68,133.77 1471.26,133.77 C1466.92,133.77 1463.49,133.7 1460.97,133.56 L1446.48,133.35 L1432.2,133.56 C1429.68,133.7 1426.11,133.77 1421.49,133.77 C1421.21,133.77 1421.07,133.35 1421.07,132.51 C1421.07,131.67 1421.21,131.25 1421.49,131.25 C1426.81,131.25 1430.73,130.865 1433.25,130.095 C1435.77,129.325 1437.52,127.96 1438.5,126 C1439.48,124.04 1439.97,120.96 1439.97,116.76 L1439.97,19.53 C1439.97,15.33 1439.52,12.25 1438.61,10.29 C1437.69,8.33 1436.02,6.965 1433.57,6.195 C1431.12,5.425 1427.23,5.04 1421.91,5.04 C1421.49,5.04 1421.28,4.62 1421.28,3.78 C1421.28,2.94 1421.49,2.52 1421.91,2.52 L1432.2,2.73 C1438.08,3.01 1442.84,3.15 1446.48,3.15 C1449.56,3.15 1452.43,3.08 1455.09,2.94 C1457.75,2.8 1459.99,2.66 1461.81,2.52 C1467.13,2.1 1471.82,1.89 1475.88,1.89 Z M1496.25,35.7 C1496.25,24.78 1493.84,16.94 1489.01,12.18 C1484.17,7.42 1477.14,5.04 1467.9,5.04 C1462.44,5.04 1458.66,6.02 1456.56,7.98 C1454.46,9.94 1453.41,13.93 1453.41,19.95 L1453.41,64.05 C1456.77,64.61 1460.9,64.89 1465.8,64.89 C1476.72,64.89 1484.53,62.51 1489.21,57.75 C1493.9,52.99 1496.25,45.64 1496.25,35.7 Z" ></path>
        <path d="M1617,19.53 C1617,15.33 1616.58,12.25 1615.74,10.29 C1614.9,8.33 1613.26,6.965 1610.81,6.195 C1608.36,5.425 1604.47,5.04 1599.15,5.04 C1598.87,5.04 1598.73,4.62 1598.73,3.78 C1598.73,2.94 1598.87,2.52 1599.15,2.52 L1609.65,2.73 C1615.53,3.01 1620.22,3.15 1623.72,3.15 C1627.78,3.15 1632.75,3.01 1638.63,2.73 L1648.5,2.52 C1648.92,2.52 1649.13,2.94 1649.13,3.78 C1649.13,4.62 1648.92,5.04 1648.5,5.04 C1643.32,5.04 1639.51,5.46 1637.06,6.3 C1634.61,7.14 1632.92,8.575 1632.02,10.605 C1631.11,12.635 1630.65,15.75 1630.65,19.95 L1630.65,116.76 C1630.65,121.1 1631.07,124.25 1631.91,126.21 C1632.75,128.17 1634.39,129.5 1636.85,130.2 C1639.3,130.9 1643.18,131.25 1648.5,131.25 C1648.92,131.25 1649.13,131.67 1649.13,132.51 C1649.13,133.35 1648.92,133.77 1648.5,133.77 C1644.3,133.77 1640.94,133.7 1638.42,133.56 L1623.72,133.35 L1609.44,133.56 C1606.92,133.7 1603.42,133.77 1598.94,133.77 C1598.66,133.77 1598.52,133.35 1598.52,132.51 C1598.52,131.67 1598.66,131.25 1598.94,131.25 C1604.26,131.25 1608.14,130.9 1610.6,130.2 C1613.05,129.5 1614.73,128.135 1615.63,126.105 C1616.55,124.075 1617,120.96 1617,116.76 L1617,19.53 Z M1636.32,61.32 L1646.82,52.92 L1677.48,91.98 C1687.7,105.28 1695.51,114.66 1700.89,120.12 C1706.29,125.58 1710.45,128.8 1713.39,129.78 C1716.33,130.76 1720.6,131.25 1726.2,131.25 C1726.62,131.25 1726.83,131.67 1726.83,132.51 C1726.83,133.35 1726.62,133.77 1726.2,133.77 L1702.68,133.77 C1701.56,133.77 1699.57,133.805 1696.69,133.875 C1693.83,133.945 1689.8,130.375 1684.62,123.165 C1679.44,115.955 1674.47,109.34 1669.71,103.32 L1636.32,61.32 Z M1675.59,19.53 C1680.21,14.91 1682.52,11.48 1682.52,9.24 C1682.52,6.44 1678.39,5.04 1670.13,5.04 C1669.85,5.04 1669.71,4.62 1669.71,3.78 C1669.71,2.94 1669.85,2.52 1670.13,2.52 L1679.16,2.73 C1684.76,3.01 1689.87,3.15 1694.49,3.15 C1699.11,3.15 1703.94,3.01 1708.98,2.73 L1716.75,2.52 C1717.17,2.52 1717.38,2.94 1717.38,3.78 C1717.38,4.62 1717.17,5.04 1716.75,5.04 C1711.01,5.04 1704.92,6.3 1698.48,8.82 C1692.04,11.34 1686.02,15.33 1680.42,20.79 L1626.66,73.5 L1621.41,73.5 L1675.59,19.53 Z" ></path>
        <path d="M1774.92,133.77 C1774.64,133.77 1774.5,133.35 1774.5,132.51 C1774.5,131.67 1774.64,131.25 1774.92,131.25 C1780.24,131.25 1784.12,130.9 1786.58,130.2 C1789.03,129.5 1790.7,128.135 1791.62,126.105 C1792.53,124.075 1792.98,120.96 1792.98,116.76 L1792.98,19.53 C1792.98,15.33 1792.53,12.25 1791.62,10.29 C1790.7,8.33 1789.03,6.965 1786.58,6.195 C1784.12,5.425 1780.24,5.04 1774.92,5.04 C1774.64,5.04 1774.5,4.62 1774.5,3.78 C1774.5,2.94 1774.64,2.52 1774.92,2.52 L1859.34,2.52 C1860.6,2.52 1861.23,3.15 1861.23,4.41 L1861.65,30.24 C1861.65,30.66 1861.27,30.905 1860.5,30.975 C1859.73,31.045 1859.34,30.87 1859.34,30.45 C1858.92,23.03 1856.68,17.255 1852.62,13.125 C1848.56,8.995 1843.17,6.93 1836.45,6.93 L1823.64,6.93 C1818.74,6.93 1815.1,7.315 1812.72,8.085 C1810.34,8.855 1808.69,10.15 1807.79,11.97 C1806.88,13.79 1806.42,16.66 1806.42,20.58 L1806.42,115.92 C1806.42,119.7 1806.88,122.535 1807.79,124.425 C1808.69,126.315 1810.27,127.61 1812.51,128.31 C1814.75,129.01 1818.25,129.36 1823.01,129.36 L1839.81,129.36 C1846.53,129.36 1852.13,126.98 1856.61,122.22 C1861.09,117.46 1864.1,110.88 1865.64,102.48 C1865.64,102.2 1865.92,102.06 1866.48,102.06 C1866.9,102.06 1867.29,102.165 1867.63,102.375 C1867.99,102.585 1868.16,102.76 1868.16,102.9 C1866.9,111.72 1866.27,120.96 1866.27,130.62 C1866.27,131.74 1866.03,132.545 1865.54,133.035 C1865.05,133.525 1864.17,133.77 1862.91,133.77 L1774.92,133.77 Z M1851.15,84.84 C1851.15,78.68 1849.64,74.27 1846.63,71.61 C1843.62,68.95 1838.62,67.62 1831.62,67.62 L1800.12,67.62 L1800.12,63.21 L1832.25,63.21 C1838.97,63.21 1843.77,62.09 1846.63,59.85 C1849.51,57.61 1850.94,53.83 1850.94,48.51 C1850.94,48.23 1851.36,48.09 1852.2,48.09 C1853.04,48.09 1853.46,48.23 1853.46,48.51 L1853.25,65.52 C1853.25,69.58 1853.32,72.66 1853.46,74.76 L1853.67,84.84 C1853.67,85.12 1853.25,85.26 1852.41,85.26 C1851.57,85.26 1851.15,85.12 1851.15,84.84 Z" ></path>
    </g>
</svg>