<?xml version="1.0" encoding="UTF-8" ?>
<!DOCTYPE svg PUBLIC "-//W3C//DTD SVG 1.1//EN" "http://www.w3.org/Graphics/SVG/1.1/DTD/svg11.dtd">
<svg width="242pt" height="241pt" viewBox="0 0 242 241" version="1.1" xmlns="http://www.w3.org/2000/svg">
<g id="#0c0c0cff">
<path fill="#0c0c0c" opacity="1.00" d=" M 0.00 0.00 L 242.00 0.00 L 242.00 241.00 L 0.00 241.00 L 0.00 0.00 M 150.40 45.51 C 144.35 46.21 138.39 47.53 132.66 49.60 C 102.51 46.05 71.61 48.81 41.19 48.11 C 40.90 50.87 37.89 56.40 42.08 56.87 C 47.96 58.78 59.79 54.72 61.92 63.06 C 62.04 101.93 60.97 140.79 59.58 179.63 C 57.91 189.66 43.82 185.92 37.00 187.13 C 38.65 189.45 34.19 197.20 38.74 197.59 C 67.80 195.88 96.99 198.30 126.01 195.98 C 148.80 201.49 176.57 203.35 195.29 186.29 C 206.81 175.45 213.15 159.73 214.01 144.10 C 211.57 143.85 206.71 143.37 204.27 143.12 C 201.97 152.85 199.96 162.81 194.23 171.23 C 185.34 184.85 167.76 192.11 151.85 188.80 C 168.66 179.62 175.03 157.10 167.04 139.97 C 160.36 125.71 144.13 120.14 129.71 117.57 C 144.46 114.59 159.55 104.60 161.53 88.61 C 164.78 75.11 156.51 63.29 146.85 55.09 C 157.37 53.92 168.39 55.41 176.99 62.00 C 189.73 71.81 195.49 87.58 200.72 102.22 C 201.44 107.67 213.83 106.17 209.44 99.40 C 207.81 82.97 207.16 66.47 205.80 50.01 C 203.41 50.04 198.62 50.09 196.22 50.12 C 193.23 51.86 192.07 60.37 188.01 56.98 C 177.59 48.57 163.76 44.11 150.40 45.51 Z" />
<path fill="#0c0c0c" opacity="1.00" d=" M 91.36 58.36 C 99.59 57.67 107.87 57.99 116.12 58.08 C 102.88 70.13 91.62 85.06 88.04 102.99 C 86.30 105.30 88.66 112.24 84.08 112.10 C 83.87 95.68 83.52 79.17 85.80 62.87 C 86.02 60.07 89.27 59.41 91.36 58.36 Z" />
<path fill="#0c0c0c" opacity="1.00" d=" M 130.26 64.38 C 144.22 75.48 140.62 106.80 120.03 110.04 C 117.46 110.12 108.77 114.12 113.02 105.98 C 115.07 91.28 118.33 74.51 130.26 64.38 Z" />
<path fill="#0c0c0c" opacity="1.00" d=" M 84.09 122.83 C 86.30 124.10 86.93 126.16 85.98 129.00 C 85.55 150.76 95.90 172.63 113.24 185.84 C 104.35 185.27 94.88 187.81 86.30 184.70 C 82.39 180.67 83.05 174.13 83.11 169.02 C 84.69 153.67 83.68 138.22 84.09 122.83 Z" />
<path fill="#0c0c0c" opacity="1.00" d=" M 113.23 123.10 C 125.42 123.12 140.39 128.51 143.23 141.86 C 147.04 154.64 146.00 174.85 132.06 180.99 C 115.08 168.04 111.48 142.45 113.23 123.10 Z" />
</g>
<g id="#f5f5f5ff">
<path fill="#f5f5f5" opacity="1.00" d=" M 150.40 45.51 C 163.76 44.11 177.59 48.57 188.01 56.98 C 192.07 60.37 193.23 51.86 196.22 50.12 C 198.62 50.09 203.41 50.04 205.80 50.01 C 207.16 66.47 207.81 82.97 209.44 99.40 C 213.83 106.17 201.44 107.67 200.72 102.22 C 195.49 87.58 189.73 71.81 176.99 62.00 C 168.39 55.41 157.37 53.92 146.85 55.09 C 156.51 63.29 164.78 75.11 161.53 88.61 C 159.55 104.60 144.46 114.59 129.71 117.57 C 144.13 120.14 160.36 125.71 167.04 139.97 C 175.03 157.10 168.66 179.62 151.85 188.80 C 167.76 192.11 185.34 184.85 194.23 171.23 C 199.96 162.81 201.97 152.85 204.27 143.12 C 206.71 143.37 211.57 143.85 214.01 144.10 C 213.15 159.73 206.81 175.45 195.29 186.29 C 176.57 203.35 148.80 201.49 126.01 195.98 C 96.99 198.30 67.80 195.88 38.74 197.59 C 34.19 197.20 38.65 189.45 37.00 187.13 C 43.82 185.92 57.91 189.66 59.58 179.63 C 60.97 140.79 62.04 101.93 61.92 63.06 C 59.79 54.72 47.96 58.78 42.08 56.87 C 37.89 56.40 40.90 50.87 41.19 48.11 C 71.61 48.81 102.51 46.05 132.66 49.60 C 138.39 47.53 144.35 46.21 150.40 45.51 M 91.36 58.36 C 89.27 59.41 86.02 60.07 85.80 62.87 C 83.52 79.17 83.87 95.68 84.08 112.10 C 88.66 112.24 86.30 105.30 88.04 102.99 C 91.62 85.06 102.88 70.13 116.12 58.08 C 107.87 57.99 99.59 57.67 91.36 58.36 M 130.26 64.38 C 118.33 74.51 115.07 91.28 113.02 105.98 C 108.77 114.12 117.46 110.12 120.03 110.04 C 140.62 106.80 144.22 75.48 130.26 64.38 M 84.09 122.83 C 83.68 138.22 84.69 153.67 83.11 169.02 C 83.05 174.13 82.39 180.67 86.30 184.70 C 94.88 187.81 104.35 185.27 113.24 185.84 C 95.90 172.63 85.55 150.76 85.98 129.00 C 86.93 126.16 86.30 124.10 84.09 122.83 M 113.23 123.10 C 111.48 142.45 115.08 168.04 132.06 180.99 C 146.00 174.85 147.04 154.64 143.23 141.86 C 140.39 128.51 125.42 123.12 113.23 123.10 Z" />
</g>
</svg>
